<svg 
    id="visual" 
    viewBox="0 0 800 1000" 
    xmlns="http://www.w3.org/2000/svg" 
    xmlns:xlink="http://www.w3.org/1999/xlink" 
    version="1.1">
    <g transform="translate(438.43641621394573 316.71606880734043)">
        <path d="M139.5 -217.4C183.4 -188.8 223.6 -154.6 242 -111.4C260.3
         -68.2 256.9 -15.9 245.6 32.6C234.4 81 215.5 125.7 185.3 160.7C155.1
          195.7 113.8 221.1 69.2 233.1C24.6 245 -23.2 243.4 -71 233.3C-118.9
           223.2 -166.8 204.6 -195.3 170.1C-223.9 135.6 -233.2 85.2 -231.6
            38.7C-229.9 -7.9 -217.3 -50.7 -203.9 -98.6C-190.5 -146.4 -176.4
             -199.4 -142.2 -232.5C-108.1 -265.6 -54.1 -278.8 -3.2 -273.9C47.8
              -269 95.5 -246 139.5 -217.4" fill="#ffb948">
        </path>
    </g>
</svg>