<svg id="visual" viewBox="0 0 100 190" width="900" height="30" xmlns="http://www.w3.org/2000/svg" xmlns:xlink="http://www.w3.org/1999/xlink" version="1.1"><path d="M0 83L16.7 83.8C33.3 84.7 66.7 86.3 100 80.7C133.3 75 166.7 62 200 70.5C233.3 79 266.7 109 300 122.7C333.3 136.3 366.7 133.7 400 116.8C433.3 100 466.7 69 500 63.7C533.3 58.3 566.7 78.7 600 82.7C633.3 86.7 666.7 74.3 700 69.3C733.3 64.3 766.7 66.7 800 66.3C833.3 66 866.7 63 883.3 61.5L900 60L900 0L883.3 0C866.7 0 833.3 0 800 0C766.7 0 733.3 0 700 0C666.7 0 633.3 0 600 0C566.7 0 533.3 0 500 0C466.7 0 433.3 0 400 0C366.7 0 333.3 0 300 0C266.7 0 233.3 0 200 0C166.7 0 133.3 0 100 0C66.7 0 33.3 0 16.7 0L0 0Z" fill="#1f242d" stroke-linecap="round" stroke-linejoin="miter"></path></svg>